PathFileType	4	(X/Y/Z)	Patient4_TMGait_0pt6_02_right_17.trc.trc
DataRate	CameraRate	NumFrames	NumMarkers	Units	OrigDataRate	OrigDataStartFrame	OrigNumFrames
80.924855491329	80.924855491329	4	33	mm	80.924855491329	36	       141
Frame#	Time	Sacral			L.Shoulder			Chest			R.Shoulder			Neck			R.ASIS			L.ASIS			R.Thigh.Superior			R.Thigh.Lateral			R.Thigh.Inferior			R.Patella			L.Thigh.Superior			L.Thigh.Lateral			L.Thigh.Inferior			L.Patella			L.Shank.Superior			L.Shank.Lateral			L.Shank.Inferior			R.Shank.Superior			R.Shank.Lateral			R.Shank.Inferior			R.Heel			R.Midfoot.Superior			R.Midfoot.Lateral			R.Toe			L.Heel			L.Midfoot.Lateral			L.Midfoot.Superior			L.Toe			L.Elbow			L.Wrist			R.Elbow			R.Wrist			
		X1	Y1	Z1	X2	Y2	Z2	X3	Y3	Z3	X4	Y4	Z4	X5	Y5	Z5	X6	Y6	Z6	X7	Y7	Z7	X8	Y8	Z8	X9	Y9	Z9	X10	Y10	Z10	X11	Y11	Z11	X12	Y12	Z12	X13	Y13	Z13	X14	Y14	Z14	X15	Y15	Z15	X16	Y16	Z16	X17	Y17	Z17	X18	Y18	Z18	X19	Y19	Z19	X20	Y20	Z20	X21	Y21	Z21	X22	Y22	Z22	X23	Y23	Z23	X24	Y24	Z24	X25	Y25	Z25	X26	Y26	Z26	X27	Y27	Z27	X28	Y28	Z28	X29	Y29	Z29	X30	Y30	Z30	X31	Y31	Z31	X32	Y32	Z32	X33	Y33	Z33	

36	20.712500000000	845.302830098685	1008.368699140089	488.424271369204	1042.470519894688	1429.850826372326	307.817292789635	1136.541873097629	1357.323235917482	472.135926518480	1050.084629479536	1437.412636795440	640.381694365984	1037.235500143499	1492.324603884268	457.785444977255	1069.182421990850	940.416210086756	612.371272450387	1115.248202745525	1002.969565618706	321.088476332282	1126.744259541578	747.982313832983	580.425027096132	1051.711325949969	633.632831326646	635.632662387724	1133.293962317948	588.896116994470	554.639378441134	1140.403639781214	502.529576771642	558.200992867020	1097.552616150736	741.041810916971	362.296832052333	1012.070755549591	628.626878232862	292.725339765953	1095.449719050308	542.086296155346	352.024799296499	1086.453321942320	456.608690457629	348.929005819954	1017.902397946459	399.954221608659	342.813322825866	879.431735835087	355.446191775457	290.770692597797	864.493197910633	229.104840035505	350.093516720090	1122.563500149779	412.834197667473	564.330064854863	1062.688005730370	301.531814709145	624.609636808608	1114.609954743915	212.467564651742	559.625782629638	995.610315961725	43.069856158716	527.522397723756	1167.009362678880	98.368673566971	558.388473501510	1080.995630423338	37.309989481180	599.662544143340	1288.726057454952	45.073083921228	582.517932799068	673.245898189452	159.971367487981	385.691577609347	733.279491658209	117.461943967017	306.127397354581	836.945994389421	129.623637736801	329.040149112670	919.122323506122	32.395218673488	301.951737356801	1039.234737473567	1074.151556857335	197.451109327771	1254.255084718628	928.525785246689	218.069000451221	950.897600466735	1104.664072043580	759.473018587444	992.753055639342	846.478619633857	752.575907796657	
37	20.724857142857	844.583966304733	1009.180104294769	491.972730499546	1041.046083630913	1430.763333387116	310.711886114210	1136.509000517772	1357.667568466463	474.007213354933	1051.759912606159	1437.435364937123	643.262528336013	1037.228142190683	1492.868176595159	460.946927550521	1069.265418204220	940.897265338024	614.132373511867	1109.960016475229	999.225075379774	323.414942850264	1124.474325161161	747.117658254787	583.452674432227	1047.838139566066	633.683937497241	637.988905112440	1129.131835584941	588.249279478211	557.015917881617	1135.287074764558	502.069232454332	560.190357806554	1101.276119729716	744.280038388487	364.667168976884	1020.691015375825	629.642126577310	294.045548988317	1106.741743601085	545.204371477169	353.438186088209	1099.230676634181	458.586110443197	349.788732141024	1029.135545523702	401.745801444550	343.874428051133	889.100403834315	361.399171897943	292.276644863325	870.718743024419	235.446584177572	351.401365075377	1117.050918021748	412.529052748926	565.994099342913	1056.567243800940	301.340480744857	625.819187410939	1108.067305274812	212.278792160520	560.474252066053	988.228635149948	43.085111769821	527.683210851619	1159.726880590360	98.278336765233	558.723299478539	1073.604506184680	37.251295709018	599.830529682336	1281.371269252770	44.716540928450	582.759352007767	677.259020145711	173.861263382666	387.258149166845	735.438468179121	129.031739704650	307.374822882823	839.981486908702	136.107434083519	330.268031611017	917.213322441363	32.863797820038	302.457801795097	1035.541272533444	1074.782016673671	200.855582437343	1244.021775862739	919.026416474988	219.816458296390	959.808699339679	1102.491112347328	763.899155764032	1013.092763137483	846.416179000277	753.893918420887	
38	20.737214285714	843.726836933963	1009.865019922407	495.400536512535	1039.291915270542	1431.541972683465	313.449462141722	1136.280925698951	1357.886408876770	475.644706995087	1053.333715203728	1437.281995258728	645.992687985240	1037.056411309078	1493.299549366391	463.969603307965	1069.184838931627	941.320701377510	615.796713288335	1102.590571938209	993.882124499625	326.435551967427	1121.929072983151	746.207009821960	586.292880128747	1043.896401078923	633.718028075431	640.308970931898	1124.764325598134	587.587306588042	559.262955459631	1130.003329973659	501.596311962520	562.176640108322	1104.779258512189	747.687531120553	366.867077953447	1028.889474614542	631.083284776391	295.196379418596	1117.502666717226	548.835853524359	354.602013191307	1111.676268817493	461.219857143651	350.489196652331	1040.401907442344	403.991422142568	344.771418159172	899.064685043546	367.126372167070	293.714914972931	877.870405033263	241.538198079969	352.709508895938	1111.391680880849	412.195995624414	567.633686876952	1050.316573064875	301.105448067989	627.002917469875	1101.445753114344	212.070081410380	561.313445876081	980.781365783100	43.090023265622	527.845024886071	1152.405130272359	98.155941269973	559.038220102936	1066.150911253370	37.179022894098	599.991017102974	1273.962106333241	44.322783434518	582.954743217859	682.779249870315	186.181349165483	389.013839716923	739.329568387893	139.592358222110	308.762098916568	844.493892785766	142.479591094459	331.555353606393	917.569743260433	33.949237918612	302.913306400458	1031.569180882075	1075.236476436067	204.057343784657	1232.775936057723	909.422731842948	221.193695523934	969.039416523533	1100.297802657112	768.232060324933	1033.763835304868	846.890905776717	755.184898148439	
39	20.749571428571	842.751613270543	1010.474222840560	498.681903333700	1037.299065707177	1432.223657697015	316.018162431802	1135.872282434132	1358.012849827868	477.071568120847	1054.788436710728	1437.029141703335	648.545144065513	1036.760256882948	1493.662548926908	466.819279821909	1068.920115409233	941.731618914050	617.425821096267	1093.688538723844	987.540059742266	330.054945136940	1119.181745583545	745.342995706137	588.897910665428	1039.943215749694	633.767889041888	642.543357103811	1120.283118823095	586.953452819461	561.363044568788	1124.640999856962	501.141005089062	564.116175361972	1107.978293015108	751.279327509071	368.911491363429	1036.501475382758	632.981161868293	296.194221339445	1127.584518378428	552.983986285750	355.488236123602	1123.633707603359	464.524255516477	350.965963470335	1051.578260660592	406.697032706701	345.452843014825	909.200944010027	372.462541788073	295.037025617082	886.004016927972	247.135955007137	353.931110177436	1105.658986954173	411.865093973570	569.209508356550	1044.000176698478	300.871877600171	628.143791626531	1094.783054144629	211.867386215502	562.126057722584	973.293355895840	43.102635709673	528.011408721191	1145.064649825441	98.031261160488	559.339303583654	1058.659781458821	37.110563856067	600.145958727452	1266.518744319564	43.929596798651	583.114138557328	689.851540106383	196.354648332582	390.861845631089	745.089461902146	148.607715439434	310.203545258460	850.664373510598	148.399914466713	332.794819128781	920.597782250896	35.624848110020	303.261824308509	1027.265570722005	1075.569738417169	207.090045656481	1220.465640701302	899.851554473062	222.200345373442	978.635299991615	1098.146987092854	772.374112960521	1054.716283588739	847.997420331893	756.376273707995	
